<svg width="106" height="149" viewBox="0 0 106 149" fill="none" xmlns="http://www.w3.org/2000/svg">
<path d="M101.297 1.58945C101.07 0.792655 100.24 0.330536 99.4436 0.557278C98.6468 0.784019 98.1846 1.61376 98.4114 2.41055L101.297 1.58945ZM0 143L16.3673 148.667L13.0912 131.659L0 143ZM5.21401 143.523C6.02556 143.357 6.54859 142.564 6.38223 141.752C6.21587 140.941 5.42311 140.418 4.61156 140.584L5.21401 143.523ZM14.1592 138.379C13.3571 138.586 12.8747 139.404 13.0818 140.207C13.2888 141.009 14.107 141.491 14.9091 141.284L14.1592 138.379ZM24.4772 138.53C25.2665 138.279 25.7022 137.435 25.4504 136.645C25.1987 135.856 24.3547 135.42 23.5655 135.672L24.4772 138.53ZM32.7792 132.419C32.0072 132.719 31.625 133.589 31.9255 134.361C32.226 135.133 33.0954 135.515 33.8674 135.214L32.7792 132.419ZM43.0151 131.29C43.7645 130.937 44.0857 130.044 43.7326 129.294C43.3794 128.545 42.4857 128.224 41.7363 128.577L43.0151 131.29ZM50.4191 124.077C49.699 124.487 49.4472 125.402 49.8568 126.123C50.2663 126.843 51.1821 127.094 51.9022 126.685L50.4191 124.077ZM60.3921 121.38C61.0754 120.912 61.2495 119.978 60.7811 119.295C60.3126 118.612 59.379 118.437 58.6957 118.906L60.3921 121.38ZM66.4531 113.062C65.8149 113.59 65.7257 114.536 66.2539 115.174C66.7821 115.812 67.7276 115.901 68.3658 115.373L66.4531 113.062ZM75.7864 108.608C76.3708 108.021 76.3684 107.071 75.7812 106.487C75.194 105.903 74.2442 105.905 73.6599 106.492L75.7864 108.608ZM80.1541 99.2817C79.6313 99.9243 79.7285 100.869 80.3711 101.392C81.0137 101.915 81.9585 101.817 82.4813 101.175L80.1541 99.2817ZM88.414 93.0699C88.8685 92.3773 88.6755 91.4474 87.9828 90.9929C87.2902 90.5384 86.3603 90.7314 85.9058 91.424L88.414 93.0699ZM90.8177 83.0374C90.4358 83.7725 90.7221 84.6781 91.4572 85.06C92.1923 85.442 93.0979 85.1557 93.4798 84.4206L90.8177 83.0374ZM97.6501 75.3138C97.9575 74.5446 97.5832 73.6717 96.8139 73.3643C96.0446 73.0568 95.1718 73.4312 94.8643 74.2005L97.6501 75.3138ZM98.041 64.9924C97.8082 65.7874 98.2639 66.6207 99.0589 66.8535C99.8539 67.0864 100.687 66.6307 100.92 65.8357L98.041 64.9924ZM103.293 56.1056C103.453 55.2928 102.924 54.5042 102.111 54.3443C101.298 54.1844 100.51 54.7136 100.35 55.5265L103.293 56.1056ZM101.814 45.8886C101.725 46.7122 102.32 47.4522 103.144 47.5416C103.967 47.6309 104.707 47.0356 104.797 46.212L101.814 45.8886ZM105.461 36.2322C105.482 35.404 104.827 34.7156 103.999 34.6947C103.171 34.6737 102.482 35.3281 102.462 36.1562L105.461 36.2322ZM102.313 26.3989C102.359 27.2261 103.067 27.8593 103.894 27.8132C104.721 27.7672 105.355 27.0593 105.309 26.2321L102.313 26.3989ZM104.345 16.2728C104.231 15.4522 103.474 14.8792 102.653 14.993C101.833 15.1068 101.26 15.8642 101.374 16.6848L104.345 16.2728ZM99.6171 7.10319C99.8034 7.91041 100.609 8.4138 101.416 8.22754C102.223 8.04128 102.727 7.2359 102.54 6.42869L99.6171 7.10319ZM14.9091 141.284C18.2084 140.432 21.3967 139.513 24.4772 138.53L23.5655 135.672C20.5399 136.637 17.4056 137.541 14.1592 138.379L14.9091 141.284ZM33.8674 135.214C37.0443 133.978 40.0921 132.668 43.0151 131.29L41.7363 128.577C38.8773 129.924 35.8932 131.207 32.7792 132.419L33.8674 135.214ZM51.9022 126.685C54.8805 124.991 57.7084 123.22 60.3921 121.38L58.6957 118.906C56.0824 120.698 53.3257 122.424 50.4191 124.077L51.9022 126.685ZM68.3658 115.373C71.0054 113.188 73.4761 110.93 75.7864 108.608L73.6599 106.492C71.4179 108.745 69.0185 110.939 66.4531 113.062L68.3658 115.373ZM82.4813 101.175C84.634 98.5286 86.6079 95.8223 88.414 93.0699L85.9058 91.424C84.1549 94.0922 82.2414 96.7159 80.1541 99.2817L82.4813 101.175ZM93.4798 84.4206C95.0418 81.4145 96.4274 78.3733 97.6501 75.3138L94.8643 74.2005C93.6772 77.1708 92.3327 80.1218 90.8177 83.0374L93.4798 84.4206ZM100.92 65.8357C101.872 62.587 102.657 59.3371 103.293 56.1056L100.35 55.5265C99.7306 58.6725 98.9661 61.8341 98.041 64.9924L100.92 65.8357ZM104.797 46.212C105.163 42.8347 105.378 39.5003 105.461 36.2322L102.462 36.1562C102.381 39.3447 102.171 42.5965 101.814 45.8886L104.797 46.212ZM105.309 26.2321C105.117 22.792 104.787 19.4617 104.345 16.2728L101.374 16.6848C101.805 19.7935 102.126 23.042 102.313 26.3989L105.309 26.2321ZM102.54 6.42869C102.154 4.75347 101.738 3.13823 101.297 1.58945L98.4114 2.41055C98.8379 3.90953 99.2416 5.47586 99.6171 7.10319L102.54 6.42869Z" fill="white"/>
</svg>
